{"asset":{"version":"2.0","generator":"OpenAI KN5 to Godot private-use converter"},"scene":0,"scenes":[{"name":"collision","nodes":[0,1,2,3,4,5,6,7]}],"nodes":[{"name":"COLLISION_CONCRETE","mesh":0},{"name":"COLLISION_GRASS","mesh":1},{"name":"COLLISION_KERB","mesh":2},{"name":"COLLISION_OFFTRACK","mesh":3},{"name":"COLLISION_PITLANE","mesh":4},{"name":"COLLISION_SAND","mesh":5},{"name":"COLLISION_TARMAC","mesh":6},{"name":"COLLISION_WALL","mesh":7}],"meshes":[{"name":"COLLISION_CONCRETE","primitives":[{"attributes":{"POSITION":0},"indices":1,"material":0,"mode":4}]},{"name":"COLLISION_GRASS","primitives":[{"attributes":{"POSITION":2},"indices":3,"material":0,"mode":4}]},{"name":"COLLISION_KERB","primitives":[{"attributes":{"POSITION":4},"indices":5,"material":0,"mode":4}]},{"name":"COLLISION_OFFTRACK","primitives":[{"attributes":{"POSITION":6},"indices":7,"material":0,"mode":4}]},{"name":"COLLISION_PITLANE","primitives":[{"attributes":{"POSITION":8},"indices":9,"material":0,"mode":4}]},{"name":"COLLISION_SAND","primitives":[{"attributes":{"POSITION":10},"indices":11,"material":0,"mode":4}]},{"name":"COLLISION_TARMAC","primitives":[{"attributes":{"POSITION":12},"indices":13,"material":0,"mode":4}]},{"name":"COLLISION_WALL","primitives":[{"attributes":{"POSITION":14},"indices":15,"material":0,"mode":4}]}],"buffers":[{"uri":"collision.bin","byteLength":9261156}],"bufferViews":[{"buffer":0,"byteOffset":0,"byteLength":43584,"target":34962},{"buffer":0,"byteOffset":43584,"byteLength":35268,"target":34963},{"buffer":0,"byteOffset":78852,"byteLength":361692,"target":34962},{"buffer":0,"byteOffset":440544,"byteLength":286620,"target":34963},{"buffer":0,"byteOffset":727164,"byteLength":115296,"target":34962},{"buffer":0,"byteOffset":842460,"byteLength":113220,"target":34963},{"buffer":0,"byteOffset":955680,"byteLength":89388,"target":34962},{"buffer":0,"byteOffset":1045068,"byteLength":88560,"target":34963},{"buffer":0,"byteOffset":1133628,"byteLength":76452,"target":34962},{"buffer":0,"byteOffset":1210080,"byteLength":108000,"target":34963},{"buffer":0,"byteOffset":1318080,"byteLength":85104,"target":34962},{"buffer":0,"byteOffset":1403184,"byteLength":108564,"target":34963},{"buffer":0,"byteOffset":1511748,"byteLength":2830728,"target":34962},{"buffer":0,"byteOffset":4342476,"byteLength":4842720,"target":34963},{"buffer":0,"byteOffset":9185196,"byteLength":39504,"target":34962},{"buffer":0,"byteOffset":9224700,"byteLength":36456,"target":34963}],"accessors":[{"bufferView":0,"byteOffset":0,"componentType":5126,"count":3632,"type":"VEC3","min":[47.29051971435547,-21.49494171142578,-779.3207397460938],"max":[1003.2860107421875,19.3709659576416,1240.1824951171875]},{"bufferView":1,"byteOffset":0,"componentType":5125,"count":8817,"type":"SCALAR","min":[0],"max":[3631]},{"bufferView":2,"byteOffset":0,"componentType":5126,"count":30141,"type":"VEC3","min":[-10.530441284179688,-21.559162139892578,-765.40771484375],"max":[1016.0806884765625,19.366479873657227,1271.5362548828125]},{"bufferView":3,"byteOffset":0,"componentType":5125,"count":71655,"type":"SCALAR","min":[0],"max":[30140]},{"bufferView":4,"byteOffset":0,"componentType":5126,"count":9608,"type":"VEC3","min":[16.067481994628906,-21.494056701660156,-770.9820556640625],"max":[999.4275512695312,19.377742767333984,1229.9127197265625]},{"bufferView":5,"byteOffset":0,"componentType":5125,"count":28305,"type":"SCALAR","min":[0],"max":[9607]},{"bufferView":6,"byteOffset":0,"componentType":5126,"count":7449,"type":"VEC3","min":[-10.388120651245117,-21.494754791259766,-795.6904907226562],"max":[995.5441284179688,19.365737915039062,1252.48876953125]},{"bufferView":7,"byteOffset":0,"componentType":5125,"count":22140,"type":"SCALAR","min":[0],"max":[7448]},{"bufferView":8,"byteOffset":0,"componentType":5126,"count":6371,"type":"VEC3","min":[12.835091590881348,-11.060517311096191,-386.7370300292969],"max":[47.755977630615234,2.2260360717773438,79.72296905517578]},{"bufferView":9,"byteOffset":0,"componentType":5125,"count":27000,"type":"SCALAR","min":[0],"max":[6370]},{"bufferView":10,"byteOffset":0,"componentType":5126,"count":7092,"type":"VEC3","min":[-1.4074757099151611,-21.484859466552734,-813.1302490234375],"max":[1017.5296630859375,19.342344284057617,1257.879638671875]},{"bufferView":11,"byteOffset":0,"componentType":5125,"count":27141,"type":"SCALAR","min":[0],"max":[7091]},{"bufferView":12,"byteOffset":0,"componentType":5126,"count":235894,"type":"VEC3","min":[-4.248441219329834,-21.55915069580078,-776.2915649414062],"max":[1001.7066650390625,19.35101318359375,1237.4644775390625]},{"bufferView":13,"byteOffset":0,"componentType":5125,"count":1210680,"type":"SCALAR","min":[0],"max":[235893]},{"bufferView":14,"byteOffset":0,"componentType":5126,"count":3292,"type":"VEC3","min":[-10.530496597290039,-21.758384704589844,-813.1302490234375],"max":[1017.5296020507812,21.09039878845215,1271.5361328125]},{"bufferView":15,"byteOffset":0,"componentType":5125,"count":9114,"type":"SCALAR","min":[0],"max":[3291]}],"materials":[{"name":"collision_hidden","pbrMetallicRoughness":{"baseColorFactor":[0.2,0.8,0.2,0.15],"metallicFactor":0.0,"roughnessFactor":1.0},"alphaMode":"BLEND","doubleSided":true}]}