<svg xmlns="http://www.w3.org/2000/svg" width="1200" height="680" viewBox="0 0 1200 680">
<rect width="100%" height="100%" fill="#111318"/>
<style>text{font-family:Segoe UI,Arial,sans-serif;fill:#d7dde5} .small{font-size:14px}.axis{stroke:#8b949e;stroke-width:1.4}.grid{stroke:#303640;stroke-width:1}.mark{stroke-dasharray:7 7;stroke-width:1.5}</style>
<text x="600.0" y="34" text-anchor="middle" font-size="24">370Z - krzywa momentu i mocy</text>
<text x="600.0" y="60" text-anchor="middle" class="small">VQ37VHR target: 366 Nm @ 5200 RPM, 331 KM @ 7000 RPM</text>
<rect x="90" y="70" width="1020" height="530" fill="#151922" stroke="#303640"/>
<line class="grid" x1="133.1" y1="70" x2="133.1" y2="600"/>
<text x="133.1" y="628" text-anchor="middle" class="small">1000</text>
<line class="grid" x1="276.8" y1="70" x2="276.8" y2="600"/>
<text x="276.8" y="628" text-anchor="middle" class="small">2000</text>
<line class="grid" x1="420.4" y1="70" x2="420.4" y2="600"/>
<text x="420.4" y="628" text-anchor="middle" class="small">3000</text>
<line class="grid" x1="564.1" y1="70" x2="564.1" y2="600"/>
<text x="564.1" y="628" text-anchor="middle" class="small">4000</text>
<line class="grid" x1="707.7" y1="70" x2="707.7" y2="600"/>
<text x="707.7" y="628" text-anchor="middle" class="small">5000</text>
<line class="grid" x1="851.4" y1="70" x2="851.4" y2="600"/>
<text x="851.4" y="628" text-anchor="middle" class="small">6000</text>
<line class="grid" x1="995.1" y1="70" x2="995.1" y2="600"/>
<text x="995.1" y="628" text-anchor="middle" class="small">7000</text>
<line class="grid" x1="90" y1="600.0" x2="1110" y2="600.0"/>
<text x="76" y="605.0" text-anchor="end" class="small" fill="#23d18b">0</text>
<line class="grid" x1="90" y1="511.7" x2="1110" y2="511.7"/>
<text x="76" y="516.7" text-anchor="end" class="small" fill="#23d18b">70</text>
<line class="grid" x1="90" y1="423.3" x2="1110" y2="423.3"/>
<text x="76" y="428.3" text-anchor="end" class="small" fill="#23d18b">140</text>
<line class="grid" x1="90" y1="335.0" x2="1110" y2="335.0"/>
<text x="76" y="340.0" text-anchor="end" class="small" fill="#23d18b">210</text>
<line class="grid" x1="90" y1="246.7" x2="1110" y2="246.7"/>
<text x="76" y="251.7" text-anchor="end" class="small" fill="#23d18b">280</text>
<line class="grid" x1="90" y1="158.3" x2="1110" y2="158.3"/>
<text x="76" y="163.3" text-anchor="end" class="small" fill="#23d18b">350</text>
<line class="grid" x1="90" y1="70.0" x2="1110" y2="70.0"/>
<text x="76" y="75.0" text-anchor="end" class="small" fill="#23d18b">420</text>
<text x="1124" y="605.0" text-anchor="start" class="small" fill="#4aa3ff">0</text>
<text x="1124" y="516.7" text-anchor="start" class="small" fill="#4aa3ff">60</text>
<text x="1124" y="428.3" text-anchor="start" class="small" fill="#4aa3ff">120</text>
<text x="1124" y="340.0" text-anchor="start" class="small" fill="#4aa3ff">180</text>
<text x="1124" y="251.7" text-anchor="start" class="small" fill="#4aa3ff">240</text>
<text x="1124" y="163.3" text-anchor="start" class="small" fill="#4aa3ff">300</text>
<text x="1124" y="75.0" text-anchor="start" class="small" fill="#4aa3ff">360</text>
<line class="axis" x1="90" y1="600" x2="1110" y2="600"/>
<line class="axis" x1="90" y1="70" x2="90" y2="600"/>
<line class="axis" x1="1110" y1="70" x2="1110" y2="600"/>
<text x="600.0" y="658" text-anchor="middle" font-size="16">Obroty silnika (RPM)</text>
<text x="28" y="335.0" transform="rotate(-90 28 335.0)" text-anchor="middle" font-size="16" fill="#23d18b">Moment obrotowy (Nm)</text>
<text x="1172" y="335.0" transform="rotate(90 1172 335.0)" text-anchor="middle" font-size="16" fill="#4aa3ff">Moc (KM)</text>
<line class="mark" x1="111.5" y1="70" x2="111.5" y2="600" stroke="#8b949e"/>
<text x="119.5" y="88" class="small" fill="#8b949e" transform="rotate(90 119.5 88)">idle 850</text>
<line class="mark" x1="736.5" y1="70" x2="736.5" y2="600" stroke="#23d18b"/>
<text x="744.5" y="88" class="small" fill="#23d18b" transform="rotate(90 744.5 88)">max moment 5200</text>
<line class="mark" x1="995.1" y1="70" x2="995.1" y2="600" stroke="#4aa3ff"/>
<text x="1003.1" y="88" class="small" fill="#4aa3ff" transform="rotate(90 1003.1 88)">max moc 7000</text>
<line class="mark" x1="1066.9" y1="70" x2="1066.9" y2="600" stroke="#ff2e2e"/>
<text x="1074.9" y="88" class="small" fill="#ff2e2e" transform="rotate(90 1074.9 88)">limiter 7500</text>
<polyline points="111.5,369.1 118.7,368.8 125.9,368.0 133.1,366.6 140.3,364.8 147.5,362.5 154.6,359.8 161.8,356.7 169.0,353.1 176.2,349.3 183.4,345.1 190.6,340.6 197.7,335.9 204.9,330.9 212.1,325.6 219.3,320.2 226.5,314.7 233.7,309.0 240.8,303.2 248.0,297.3 255.2,291.4 262.4,285.4 269.6,279.4 276.8,273.5 283.9,267.6 291.1,261.9 298.3,256.2 305.5,250.6 312.7,245.3 319.9,240.1 327.0,235.1 334.2,230.4 341.4,226.0 348.6,221.9 355.8,218.1 363.0,214.6 370.1,211.6 377.3,208.9 384.5,206.7 391.7,205.0 398.9,203.7 406.1,203.0 413.2,202.8 420.4,202.7 427.6,202.4 434.8,201.9 442.0,201.2 449.2,200.4 456.3,199.5 463.5,198.4 470.7,197.2 477.9,195.9 485.1,194.4 492.3,192.9 499.4,191.2 506.6,189.5 513.8,187.7 521.0,185.8 528.2,183.9 535.4,181.9 542.5,179.8 549.7,177.7 556.9,175.6 564.1,173.5 571.3,171.4 578.5,169.2 585.6,167.1 592.8,164.9 600.0,162.8 607.2,160.8 614.4,158.7 621.5,156.7 628.7,154.8 635.9,152.9 643.1,151.1 650.3,149.4 657.5,147.8 664.6,146.2 671.8,144.8 679.0,143.5 686.2,142.3 693.4,141.3 700.6,140.3 707.7,139.6 714.9,139.0 722.1,138.5 729.3,138.2 736.5,138.1 743.7,138.2 750.8,138.5 758.0,138.9 765.2,139.4 772.4,140.1 779.6,140.9 786.8,141.8 793.9,142.8 801.1,143.9 808.3,145.1 815.5,146.4 822.7,147.7 829.9,149.1 837.0,150.6 844.2,152.0 851.4,153.6 858.6,155.1 865.8,156.6 873.0,158.2 880.1,159.7 887.3,161.2 894.5,162.7 901.7,164.1 908.9,165.5 916.1,166.9 923.2,168.1 930.4,169.3 937.6,170.4 944.8,171.4 952.0,172.4 959.2,173.2 966.3,173.8 973.5,174.4 980.7,174.8 987.9,175.0 995.1,175.1 1002.3,217.6 1009.4,260.1 1016.6,302.6 1023.8,345.1 1031.0,387.5 1038.2,430.0 1045.4,472.5 1052.5,515.0 1059.7,557.5 1066.9,600.0" fill="none" stroke="#23d18b" stroke-width="4" stroke-linejoin="round" stroke-linecap="round"/>
<polyline points="111.5,567.8 118.7,565.9 125.9,563.9 133.1,561.8 140.3,559.5 147.5,557.2 154.6,554.7 161.8,552.2 169.0,549.4 176.2,546.6 183.4,543.6 190.6,540.5 197.7,537.2 204.9,533.9 212.1,530.3 219.3,526.7 226.5,522.9 233.7,518.9 240.8,514.9 248.0,510.7 255.2,506.5 262.4,502.1 269.6,497.6 276.8,493.0 283.9,488.4 291.1,483.7 298.3,478.9 305.5,474.1 312.7,469.2 319.9,464.4 327.0,459.5 334.2,454.7 341.4,449.9 348.6,445.1 355.8,440.4 363.0,435.8 370.1,431.4 377.3,427.0 384.5,422.8 391.7,418.8 398.9,415.0 406.1,411.4 413.2,408.0 420.4,404.7 427.6,401.3 434.8,397.8 442.0,394.2 449.2,390.5 456.3,386.7 463.5,382.9 470.7,378.9 477.9,374.9 485.1,370.8 492.3,366.5 499.4,362.3 506.6,357.9 513.8,353.4 521.0,348.9 528.2,344.3 535.4,339.7 542.5,335.0 549.7,330.2 556.9,325.4 564.1,320.5 571.3,315.6 578.5,310.6 585.6,305.6 592.8,300.6 600.0,295.6 607.2,290.6 614.4,285.5 621.5,280.5 628.7,275.4 635.9,270.4 643.1,265.4 650.3,260.4 657.5,255.5 664.6,250.6 671.8,245.8 679.0,241.0 686.2,236.3 693.4,231.7 700.6,227.2 707.7,222.8 714.9,218.5 722.1,214.4 729.3,210.4 736.5,206.5 743.7,202.8 750.8,199.2 758.0,195.8 765.2,192.5 772.4,189.3 779.6,186.3 786.8,183.4 793.9,180.5 801.1,177.8 808.3,175.2 815.5,172.7 822.7,170.2 829.9,167.9 837.0,165.6 844.2,163.3 851.4,161.1 858.6,159.0 865.8,156.9 873.0,154.8 880.1,152.7 887.3,150.7 894.5,148.6 901.7,146.5 908.9,144.4 916.1,142.3 923.2,140.1 930.4,137.8 937.6,135.5 944.8,133.1 952.0,130.6 959.2,127.9 966.3,125.2 973.5,122.3 980.7,119.3 987.9,116.1 995.1,112.7 1002.3,158.3 1009.4,204.6 1016.6,251.6 1023.8,299.3 1031.0,347.6 1038.2,396.7 1045.4,446.5 1052.5,497.0 1059.7,548.1 1066.9,600.0" fill="none" stroke="#4aa3ff" stroke-width="4" stroke-linejoin="round" stroke-linecap="round"/>
<circle cx="736.5" cy="138.1" r="6" fill="#23d18b"/>
<circle cx="995.1" cy="112.7" r="6" fill="#4aa3ff"/>
<rect x="792" y="508" width="300" height="70" rx="8" fill="#1b1f27" stroke="#303640"/>
<text x="808" y="536" class="small">Max moment: 366 Nm @ 5200 RPM</text>
<text x="808" y="562" class="small">Max moc: 331 KM @ 7000 RPM</text>
</svg>