<svg xmlns="http://www.w3.org/2000/svg" width="1200" height="680" viewBox="0 0 1200 680">
<rect width="100%" height="100%" fill="#111318"/>
<style>text{font-family:Segoe UI,Arial,sans-serif;fill:#d7dde5} .small{font-size:14px}.axis{stroke:#8b949e;stroke-width:1.4}.grid{stroke:#303640;stroke-width:1}.mark{stroke-dasharray:7 7;stroke-width:1.5}</style>
<text x="600.0" y="34" text-anchor="middle" font-size="24">test_car_manual - krzywa momentu i mocy po strojeniu opor?w</text>
<text x="600.0" y="60" text-anchor="middle" class="small">400 Nm peak, ok. 263 KM; op?r aero Cd 0.29, A 2.05 m?, masa 1380 kg</text>
<rect x="90" y="70" width="1020" height="530" fill="#151922" stroke="#303640"/>
<line class="grid" x1="138.6" y1="70" x2="138.6" y2="600"/>
<text x="138.6" y="628" text-anchor="middle" class="small">1000</text>
<line class="grid" x1="300.5" y1="70" x2="300.5" y2="600"/>
<text x="300.5" y="628" text-anchor="middle" class="small">2000</text>
<line class="grid" x1="462.4" y1="70" x2="462.4" y2="600"/>
<text x="462.4" y="628" text-anchor="middle" class="small">3000</text>
<line class="grid" x1="624.3" y1="70" x2="624.3" y2="600"/>
<text x="624.3" y="628" text-anchor="middle" class="small">4000</text>
<line class="grid" x1="786.2" y1="70" x2="786.2" y2="600"/>
<text x="786.2" y="628" text-anchor="middle" class="small">5000</text>
<line class="grid" x1="948.1" y1="70" x2="948.1" y2="600"/>
<text x="948.1" y="628" text-anchor="middle" class="small">6000</text>
<line class="grid" x1="1110.0" y1="70" x2="1110.0" y2="600"/>
<text x="1110.0" y="628" text-anchor="middle" class="small">7000</text>
<line class="grid" x1="90" y1="600.0" x2="1110" y2="600.0"/>
<text x="76" y="605.0" text-anchor="end" class="small" fill="#23d18b">0</text>
<line class="grid" x1="90" y1="494.0" x2="1110" y2="494.0"/>
<text x="76" y="499.0" text-anchor="end" class="small" fill="#23d18b">100</text>
<line class="grid" x1="90" y1="388.0" x2="1110" y2="388.0"/>
<text x="76" y="393.0" text-anchor="end" class="small" fill="#23d18b">200</text>
<line class="grid" x1="90" y1="282.0" x2="1110" y2="282.0"/>
<text x="76" y="287.0" text-anchor="end" class="small" fill="#23d18b">300</text>
<line class="grid" x1="90" y1="176.0" x2="1110" y2="176.0"/>
<text x="76" y="181.0" text-anchor="end" class="small" fill="#23d18b">400</text>
<line class="grid" x1="90" y1="70.0" x2="1110" y2="70.0"/>
<text x="76" y="75.0" text-anchor="end" class="small" fill="#23d18b">500</text>
<text x="1124" y="605.0" text-anchor="start" class="small" fill="#4aa3ff">0</text>
<text x="1124" y="529.3" text-anchor="start" class="small" fill="#4aa3ff">50</text>
<text x="1124" y="453.6" text-anchor="start" class="small" fill="#4aa3ff">100</text>
<text x="1124" y="377.9" text-anchor="start" class="small" fill="#4aa3ff">150</text>
<text x="1124" y="302.1" text-anchor="start" class="small" fill="#4aa3ff">200</text>
<text x="1124" y="226.4" text-anchor="start" class="small" fill="#4aa3ff">250</text>
<text x="1124" y="150.7" text-anchor="start" class="small" fill="#4aa3ff">300</text>
<text x="1124" y="75.0" text-anchor="start" class="small" fill="#4aa3ff">350</text>
<line class="axis" x1="90" y1="600" x2="1110" y2="600"/>
<line class="axis" x1="90" y1="70" x2="90" y2="600"/>
<line class="axis" x1="1110" y1="70" x2="1110" y2="600"/>
<text x="600.0" y="658" text-anchor="middle" font-size="16">Obroty silnika (RPM)</text>
<text x="28" y="335.0" transform="rotate(-90 28 335.0)" text-anchor="middle" font-size="16" fill="#23d18b">Moment obrotowy (Nm)</text>
<text x="1172" y="335.0" transform="rotate(90 1172 335.0)" text-anchor="middle" font-size="16" fill="#4aa3ff">Moc (KM)</text>
<line class="mark" x1="122.4" y1="70" x2="122.4" y2="600" stroke="#8b949e"/>
<text x="130.4" y="88" class="small" fill="#8b949e" transform="rotate(90 130.4 88)">idle 900</text>
<line class="mark" x1="656.7" y1="70" x2="656.7" y2="600" stroke="#23d18b"/>
<text x="664.7" y="88" class="small" fill="#23d18b" transform="rotate(90 664.7 88)">max moment 4200</text>
<line class="mark" x1="1029.0" y1="70" x2="1029.0" y2="600" stroke="#ff5a52"/>
<text x="1037.0" y="88" class="small" fill="#ff5a52" transform="rotate(90 1037.0 88)">redline 6500</text>
<line class="mark" x1="1077.6" y1="70" x2="1077.6" y2="600" stroke="#ff2e2e"/>
<text x="1085.6" y="88" class="small" fill="#ff2e2e" transform="rotate(90 1085.6 88)">limiter 6800</text>
<polyline points="122.4,421.9 130.5,421.6 138.6,420.6 146.7,418.9 154.8,416.7 162.9,413.9 171.0,410.6 179.0,406.8 187.1,402.6 195.2,398.0 203.3,393.0 211.4,387.6 219.5,382.0 227.6,376.1 235.7,370.0 243.8,363.7 251.9,357.3 260.0,350.7 268.1,344.1 276.2,337.4 284.3,330.7 292.4,324.1 300.5,317.5 308.6,311.0 316.7,304.7 324.8,298.6 332.9,292.7 341.0,287.0 349.0,281.7 357.1,276.6 365.2,272.0 373.3,267.7 381.4,263.9 389.5,260.6 397.6,257.7 405.7,255.5 413.8,253.8 421.9,252.7 430.0,252.3 438.1,252.1 446.2,251.3 454.3,250.0 462.4,248.2 470.5,246.0 478.6,243.5 486.7,240.6 494.8,237.4 502.9,233.9 511.0,230.3 519.0,226.4 527.1,222.5 535.2,218.4 543.3,214.3 551.4,210.2 559.5,206.2 567.6,202.2 575.7,198.4 583.8,194.7 591.9,191.2 600.0,188.0 608.1,185.1 616.2,182.5 624.3,180.3 632.4,178.5 640.5,177.1 648.6,176.3 656.7,176.0 664.8,176.2 672.9,176.7 681.0,177.4 689.0,178.5 697.1,179.9 705.2,181.5 713.3,183.4 721.4,185.5 729.5,187.9 737.6,190.4 745.7,193.1 753.8,196.0 761.9,199.1 770.0,202.3 778.1,205.6 786.2,209.1 794.3,212.7 802.4,216.3 810.5,220.0 818.6,223.8 826.7,227.6 834.8,231.5 842.9,235.4 851.0,239.2 859.0,243.1 867.1,246.9 875.2,250.7 883.3,254.4 891.4,258.1 899.5,261.6 907.6,265.1 915.7,268.4 923.8,271.6 931.9,274.7 940.0,277.6 948.1,280.3 956.2,282.9 964.3,285.2 972.4,287.3 980.5,289.2 988.6,290.8 996.7,292.2 1004.8,293.3 1012.9,294.1 1021.0,294.6 1029.0,294.7 1037.1,345.6 1045.2,396.5 1053.3,447.4 1061.4,498.2 1069.5,549.1 1077.6,600.0" fill="none" stroke="#23d18b" stroke-width="4" stroke-linejoin="round" stroke-linecap="round"/>
<polyline points="122.4,567.8 130.5,566.0 138.6,564.0 146.7,561.9 154.8,559.5 162.9,557.1 171.0,554.4 179.0,551.6 187.1,548.5 195.2,545.3 203.3,541.9 211.4,538.2 219.5,534.4 227.6,530.4 235.7,526.2 243.8,521.8 251.9,517.2 260.0,512.5 268.1,507.6 276.2,502.5 284.3,497.4 292.4,492.1 300.5,486.7 308.6,481.2 316.7,475.6 324.8,470.0 332.9,464.4 341.0,458.7 349.0,453.1 357.1,447.6 365.2,442.1 373.3,436.7 381.4,431.4 389.5,426.4 397.6,421.5 405.7,416.8 413.8,412.5 421.9,408.4 430.0,404.7 438.1,401.1 446.2,397.1 454.3,392.9 462.4,388.3 470.5,383.4 478.6,378.3 486.7,372.9 494.8,367.2 502.9,361.3 511.0,355.2 519.0,348.9 527.1,342.5 535.2,335.9 543.3,329.2 551.4,322.4 559.5,315.6 567.6,308.7 575.7,301.9 583.8,295.1 591.9,288.4 600.0,281.8 608.1,275.3 616.2,269.1 624.3,263.2 632.4,257.5 640.5,252.2 648.6,247.2 656.7,242.7 664.8,238.6 672.9,234.8 681.0,231.2 689.0,228.0 697.1,225.0 705.2,222.2 713.3,219.7 721.4,217.5 729.5,215.5 737.6,213.8 745.7,212.3 753.8,211.0 761.9,209.9 770.0,209.0 778.1,208.4 786.2,207.9 794.3,207.6 802.4,207.4 810.5,207.4 818.6,207.6 826.7,207.8 834.8,208.2 842.9,208.6 851.0,209.2 859.0,209.8 867.1,210.4 875.2,211.1 883.3,211.7 891.4,212.4 899.5,213.1 907.6,213.7 915.7,214.2 923.8,214.6 931.9,215.0 940.0,215.2 948.1,215.2 956.2,215.1 964.3,214.8 972.4,214.2 980.5,213.4 988.6,212.3 996.7,211.0 1004.8,209.3 1012.9,207.2 1021.0,204.8 1029.0,201.9 1037.1,265.7 1045.2,330.5 1053.3,396.4 1061.4,463.2 1069.5,531.1 1077.6,600.0" fill="none" stroke="#4aa3ff" stroke-width="4" stroke-linejoin="round" stroke-linecap="round"/>
<circle cx="656.7" cy="176.0" r="6" fill="#23d18b"/>
<circle cx="1029.0" cy="201.9" r="6" fill="#4aa3ff"/>
<rect x="108" y="88" width="260" height="72" rx="8" fill="#1b1f27" stroke="#303640"/>
<line x1="126" y1="113" x2="176" y2="113" stroke="#23d18b" stroke-width="4"/><text x="188" y="118" class="small">Moment obrotowy (Nm)</text>
<line x1="126" y1="140" x2="176" y2="140" stroke="#4aa3ff" stroke-width="4"/><text x="188" y="145" class="small">Moc (KM)</text>
<rect x="800" y="508" width="292" height="70" rx="8" fill="#1b1f27" stroke="#303640"/>
<text x="816" y="536" class="small">Max moment: 400 Nm @ 4200 RPM</text>
<text x="816" y="562" class="small">Max moc: 263 KM @ 6500 RPM</text>
</svg>